<svg viewBox="0 0 24 16" fill="none" xmlns="http://www.w3.org/2000/svg">
  <rect width="24" height="16" rx="2" fill="#1A1B3A"/>
  <path d="M9.5 5.8L7.8 11.8H6L4.9 7.2C4.8 6.9 4.7 6.8 4.4 6.7C3.9 6.4 3.2 6.2 2.5 6L2.6 5.8H5.8C6.1 5.8 6.4 6 6.5 6.4L7 9.9L8.5 5.8H9.5Z" fill="white"/>
  <path d="M13 9.4C13 8 11.3 7.9 11.3 7.2C11.3 6.9 11.6 6.6 12.2 6.6C12.6 6.6 13 6.7 13.3 6.8L13.5 5.9C13.2 5.8 12.8 5.7 12.3 5.7C10.9 5.7 9.9 6.5 9.9 7.6C9.9 8.4 10.6 8.8 11.1 9.1C11.6 9.4 11.8 9.6 11.8 9.8C11.8 10.2 11.4 10.4 11 10.4C10.4 10.4 9.9 10.3 9.5 10.1L9.3 11C9.7 11.2 10.3 11.3 10.9 11.3C12.4 11.3 13.4 10.5 13.4 9.4H13Z" fill="white"/>
  <path d="M14.2 5.8H15.4L16.8 11.8H15.5L15.2 10.7H13.3L13 11.8H11.5L13.8 6.2C14 5.9 14.2 5.8 14.5 5.8H14.2ZM14.8 9.8L14.2 7.9L13.6 9.8H14.8Z" fill="white"/>
  <path d="M17.3 11.8L19 5.8H20.2L21.9 11.8H20.6L20.3 10.9H18.4L18.2 11.8H17.3ZM18.7 10L19.3 8L19.9 10H18.7Z" fill="white"/>
</svg> 